REM DIRINDEX 1\2,1\3,1\4,1\5
REM DIRNAME "folder01","folder02","folder03","folder04","folder05"
TITLE ""
FILE "1Q_j_2249-2262.mp3" MP3
  TRACK 01 AUDIO
    TITLE "3:cjc172_0448"
    INDEX 01 00:00:00
  TRACK 02 AUDIO
    TITLE "0:"
    INDEX 01 00:01:37
  TRACK 03 AUDIO
    TITLE "4:cjc172_0449"
    INDEX 01 00:01:47
  TRACK 04 AUDIO
    TITLE "0:"
    INDEX 01 00:04:26
  TRACK 05 AUDIO
    TITLE "5:cjc172_0450"
    INDEX 01 00:04:32
  TRACK 06 AUDIO
    TITLE "0:"
    INDEX 01 00:11:18
  TRACK 07 AUDIO
    TITLE "3:cjc172_0451"
    INDEX 01 00:11:63
  TRACK 08 AUDIO
    TITLE "0:"
    INDEX 01 00:13:19
  TRACK 09 AUDIO
    TITLE "4:cjc172_0452"
    INDEX 01 00:13:29
  TRACK 10 AUDIO
    TITLE "0:"
    INDEX 01 00:15:47
  TRACK 11 AUDIO
    TITLE "5:cjc172_0453"
    INDEX 01 00:15:55
  TRACK 12 AUDIO
    TITLE "0:"
    INDEX 01 00:21:46
  TRACK 13 AUDIO
    TITLE "3:cjc172_0454"
    INDEX 01 00:22:18
  TRACK 14 AUDIO
    TITLE "0:"
    INDEX 01 00:23:35
  TRACK 15 AUDIO
    TITLE "4:cjc172_0455"
    INDEX 01 00:23:52
  TRACK 16 AUDIO
    TITLE "0:"
    INDEX 01 00:25:63
  TRACK 17 AUDIO
    TITLE "5:cjc172_0456"
    INDEX 01 00:25:71
  TRACK 18 AUDIO
    TITLE "0:"
    INDEX 01 00:30:72
  TRACK 19 AUDIO
    TITLE "3:cjc172_0457"
    INDEX 01 00:31:42
  TRACK 20 AUDIO
    TITLE "0:"
    INDEX 01 00:32:73
  TRACK 21 AUDIO
    TITLE "4:cjc172_0458"
    INDEX 01 00:33:08
  TRACK 22 AUDIO
    TITLE "0:"
    INDEX 01 00:35:13
  TRACK 23 AUDIO
    TITLE "5:cjc172_0459"
    INDEX 01 00:35:20
  TRACK 24 AUDIO
    TITLE "0:"
    INDEX 01 00:40:49
  TRACK 25 AUDIO
    TITLE "3:cjc172_0460"
    INDEX 01 00:41:19
  TRACK 26 AUDIO
    TITLE "0:"
    INDEX 01 00:42:22
  TRACK 27 AUDIO
    TITLE "4:cjc172_0461"
    INDEX 01 00:42:44
  TRACK 28 AUDIO
    TITLE "0:"
    INDEX 01 00:44:55
  TRACK 29 AUDIO
    TITLE "5:cjc172_0462"
    INDEX 01 00:44:62
  TRACK 30 AUDIO
    TITLE "0:"
    INDEX 01 00:51:02
  TRACK 31 AUDIO
    TITLE "3:cjc172_0463"
    INDEX 01 00:51:47
  TRACK 32 AUDIO
    TITLE "0:"
    INDEX 01 00:52:68
  TRACK 33 AUDIO
    TITLE "4:cjc172_0464"
    INDEX 01 00:53:01
  TRACK 34 AUDIO
    TITLE "0:"
    INDEX 01 00:54:67
  TRACK 35 AUDIO
    TITLE "5:cjc172_0465"
    INDEX 01 00:54:73
  TRACK 36 AUDIO
    TITLE "0:"
    INDEX 01 01:00:46
  TRACK 37 AUDIO
    TITLE "3:cjc172_0466"
    INDEX 01 01:01:18
  TRACK 38 AUDIO
    TITLE "0:"
    INDEX 01 01:02:45
  TRACK 39 AUDIO
    TITLE "4:cjc172_0467"
    INDEX 01 01:02:54
  TRACK 40 AUDIO
    TITLE "0:"
    INDEX 01 01:05:59
  TRACK 41 AUDIO
    TITLE "5:cjc172_0468"
    INDEX 01 01:05:65
  TRACK 42 AUDIO
    TITLE "0:"
    INDEX 01 01:10:66
  TRACK 43 AUDIO
    TITLE "3:cjc172_0469"
    INDEX 01 01:11:38
  TRACK 44 AUDIO
    TITLE "0:"
    INDEX 01 01:13:01
  TRACK 45 AUDIO
    TITLE "4:cjc172_0470"
    INDEX 01 01:13:15
  TRACK 46 AUDIO
    TITLE "0:"
    INDEX 01 01:17:17
  TRACK 47 AUDIO
    TITLE "5:cjc172_0471"
    INDEX 01 01:17:25
  TRACK 48 AUDIO
    TITLE "0:"
    INDEX 01 01:23:35
  TRACK 49 AUDIO
    TITLE "3:cjc172_0472"
    INDEX 01 01:24:05
  TRACK 50 AUDIO
    TITLE "0:"
    INDEX 01 01:25:34
  TRACK 51 AUDIO
    TITLE "4:cjc172_0473"
    INDEX 01 01:25:42
  TRACK 52 AUDIO
    TITLE "0:"
    INDEX 01 01:27:23
  TRACK 53 AUDIO
    TITLE "5:cjc172_0474"
    INDEX 01 01:27:31
  TRACK 54 AUDIO
    TITLE "0:"
    INDEX 01 01:33:55
  TRACK 55 AUDIO
    TITLE "3:cjc172_0475"
    INDEX 01 01:34:25
  TRACK 56 AUDIO
    TITLE "0:"
    INDEX 01 01:35:44
  TRACK 57 AUDIO
    TITLE "4:cjc172_0476"
    INDEX 01 01:35:52
  TRACK 58 AUDIO
    TITLE "0:"
    INDEX 01 01:37:51
  TRACK 59 AUDIO
    TITLE "5:cjc172_0477"
    INDEX 01 01:37:59
  TRACK 60 AUDIO
    TITLE "0:"
    INDEX 01 01:43:20
  TRACK 61 AUDIO
    TITLE "3:cjc172_0478"
    INDEX 01 01:43:67
  TRACK 62 AUDIO
    TITLE "0:"
    INDEX 01 01:45:39
  TRACK 63 AUDIO
    TITLE "4:cjc172_0479"
    INDEX 01 01:45:46
  TRACK 64 AUDIO
    TITLE "0:"
    INDEX 01 01:48:04
  TRACK 65 AUDIO
    TITLE "5:cjc172_0480"
    INDEX 01 01:48:13
  TRACK 66 AUDIO
    TITLE "0:"
    INDEX 01 01:53:32
  TRACK 67 AUDIO
    TITLE "3:cjc172_0481"
    INDEX 01 01:54:02
  TRACK 68 AUDIO
    TITLE "0:"
    INDEX 01 01:55:33
  TRACK 69 AUDIO
    TITLE "4:cjc172_0482"
    INDEX 01 01:55:43
  TRACK 70 AUDIO
    TITLE "0:"
    INDEX 01 01:57:52
  TRACK 71 AUDIO
    TITLE "5:cjc172_0483"
    INDEX 01 01:57:59
  TRACK 72 AUDIO
    TITLE "0:"
    INDEX 01 02:02:31
  TRACK 73 AUDIO
    TITLE "3:cjc172_0484"
    INDEX 01 02:03:01
  TRACK 74 AUDIO
    TITLE "0:"
    INDEX 01 02:04:32
  TRACK 75 AUDIO
    TITLE "4:cjc172_0485"
    INDEX 01 02:04:42
  TRACK 76 AUDIO
    TITLE "0:"
    INDEX 01 02:06:35
  TRACK 77 AUDIO
    TITLE "5:cjc172_0486"
    INDEX 01 02:06:41
  TRACK 78 AUDIO
    TITLE "0:"
    INDEX 01 02:10:33
  TRACK 79 AUDIO
    TITLE "3:cjc172_0487"
    INDEX 01 02:11:03
  TRACK 80 AUDIO
    TITLE "0:"
    INDEX 01 02:12:32
  TRACK 81 AUDIO
    TITLE "4:cjc172_0488"
    INDEX 01 02:12:41
  TRACK 82 AUDIO
    TITLE "0:"
    INDEX 01 02:14:44
  TRACK 83 AUDIO
    TITLE "5:cjc172_0489"
    INDEX 01 02:14:54
  TRACK 84 AUDIO
    TITLE "0:"
    INDEX 01 02:19:40
